#!OML:ASF X:\für Bonn\!DataBase\2005_08_12_Daniel\c3d\Daniel.ASF
:FULLY-SPECIFIED
:DEGREES
489
root 14.9826 1.2761 1.01889 -723.872 -83.4946 -96.9758
lowerback 15.5351 -3.23168 1.3911
upperback 0.717783 -4.19418 -0.615149
thorax -8.09019 -2.13512 -0.502464
lowerneck -10.9592 0.590048 -10.3458
upperneck 4.86026 1.89563 4.49077
head 3.07866 0.931341 3.14116
rclavicle -1.08139e-013 1.09729e-013
rhumerus -50.5354 -18.1332 -60.3465
rradius 11.7223
rwrist 74.1167
rhand -7.79239 -345.999
rfingers 7.12502
rthumb 18.1086 -375.176
lclavicle -1.08139e-013 1.09729e-013
lhumerus -408.278 13.1537 -292.956
lradius 15.2295
lwrist -59.9227
lhand -5.58984 352.049
lfingers 7.12502
lthumb 20.2266 381.015
rfemur 190.098 -196.383 199.225
rtibia 17.482
rfoot -8.18846 -32.9169
rtoes 25.8332
lfemur -0.472483 -22.3538 -17.5874
ltibia 29.8505
lfoot 0.580563 29.1264
ltoes 13.0199
490
root 14.9829 1.27592 1.01873 -723.591 -83.4956 -97.2495
lowerback 15.4966 -3.24061 1.40087
upperback 0.736114 -4.20407 -0.596388
thorax -8.0483 -2.14037 -0.48852
lowerneck -10.9232 0.600258 -10.3377
upperneck 4.78872 1.9052 4.47327
head 3.05066 0.936475 3.13381
rclavicle 4.41302e-014 -9.61372e-014
rhumerus -50.4586 -17.9876 -60.5111
rradius 11.7555
rwrist 73.955
rhand -7.75979 -346.025
rfingers 7.12502
rthumb 18.14 -375.199
lclavicle 4.41302e-014 -9.61372e-014
lhumerus -408.259 13.2504 -293.007
lradius 15.2069
lwrist -60.0446
lhand -5.61807 352.03
lfingers 7.12502
lthumb 20.1995 380.999
rfemur 190.069 -196.318 199.235
rtibia 17.4993
rfoot -8.13721 -32.9299
rtoes 25.786
lfemur -0.488955 -22.4227 -17.5693
ltibia 29.8529
lfoot 0.611394 29.1264
ltoes 12.9512
491
root 14.9837 1.27618 1.01765 -723.597 -83.4963 -97.2437
lowerback 15.4714 -3.24033 1.3686
upperback 0.753699 -4.20897 -0.579278
thorax -8.0116 -2.14159 -0.453149
lowerneck -10.9311 0.600655 -10.3688
upperneck 4.77241 1.91021 4.47968
head 3.04624 0.938929 3.14091
rclavicle -7.55382e-015 2.85008e-014
rhumerus -50.3799 -17.7959 -60.6867
rradius 11.7732
rwrist 73.7397
rhand -7.77029 -346.034
rfingers 7.12502
rthumb 18.1299 -375.209
lclavicle -7.55382e-015 2.85008e-014
lhumerus -408.264 13.4191 -293.109
lradius 15.1915
lwrist -60.2891
lhand -5.64979 352.024
lfingers 7.12502
lthumb 20.169 380.997
rfemur 190.05 -196.275 199.221
rtibia 17.5208
rfoot -8.04257 -32.9344
rtoes 25.702
lfemur -0.496103 -22.4343 -17.5726
ltibia 29.8503
lfoot 0.696385 29.0762
ltoes 12.8283
492
root 14.9831 1.27606 1.01762 -723.597 -83.4963 -97.2437
lowerback 15.4382 -3.24501 1.35689
upperback 0.775861 -4.21811 -0.576985
thorax -7.96827 -2.14596 -0.444758
lowerneck -10.8805 0.60621 -10.3494
upperneck 4.68347 1.91075 4.4587
head 3.01147 0.939949 3.12988
rclavicle 1.86858e-014 -3.78685e-014
rhumerus -50.3201 -17.7336 -60.7826
rradius 11.781
rwrist 73.6776
rhand -7.75269 -346.054
rfingers 7.12502
rthumb 18.1468 -375.228
lclavicle 1.86858e-014 -3.78685e-014
lhumerus -408.239 13.4536 -293.114
lradius 15.1952
lwrist -60.3359
lhand -5.65662 351.997
lfingers 7.12502
lthumb 20.1624 380.97
rfemur 190.045 -196.276 199.221
rtibia 17.5296
rfoot -8.06854 -32.965
rtoes 25.5911
lfemur -0.505844 -22.4826 -17.5884
ltibia 29.8521
lfoot 0.725359 29.0548
ltoes 12.7892
